<?xml version="1.0" encoding="UTF-8"?>
<svg viewBox="0 0 296 283" xmlns="http://www.w3.org/2000/svg">
<path d="m285.42 21.375h-275.09c-5.6393 0-10.316-4.6765-10.316-10.316 0-5.6394 4.6765-10.316 10.316-10.316h275.09c5.64 0 10.316 4.6765 10.316 10.316 0 5.6394-4.676 10.316-10.316 10.316z" fill="#241f5c"/>
<path d="m134.12 103.9h-123.79c-5.6393 0-10.316-4.6769-10.316-10.316 0-5.6393 4.6765-10.316 10.316-10.316h123.79c5.64 0 10.316 4.6766 10.316 10.316 0 5.6394-4.676 10.316-10.316 10.316z" fill="#241f5c"/>
<path d="m92.853 186.43h-82.527c-5.6393 0-10.316-4.677-10.316-10.316s4.6765-10.316 10.316-10.316h82.527c5.6394 0 10.316 4.677 10.316 10.316s-4.6768 10.316-10.316 10.316z" fill="#241f5c"/>
<path d="m65.344 268.96h-55.018c-5.6393 0-10.316-4.677-10.316-10.316s4.6765-10.316 10.316-10.316h55.018c5.6393 0 10.316 4.677 10.316 10.316s-4.6766 10.316-10.316 10.316z" fill="#241f5c"/>
<path d="m145.67 282.71c-22.145 0-40.301-18.019-40.301-40.301 0-22.145 18.019-40.301 40.301-40.301s40.301 18.018 40.301 40.301c0 22.282-18.019 40.301-40.301 40.301zm0-59.833c-10.866 0-19.669 8.803-19.669 19.669s8.803 19.669 19.669 19.669 19.669-8.803 19.669-19.669-8.803-19.669-19.669-19.669z" fill="#241f5c"/>
<path d="m175.65 252.73c-5.639 0-10.316-4.677-10.316-10.316v-120.63c0-16.643 9.904-29.71 25.996-33.974l59.833-16.368c13.066-3.5762 24.345-2.201 32.323 3.9886 7.977 6.1895 12.104 16.23 12.104 30.122v117.05c0 5.64-4.677 10.316-10.316 10.316s-10.316-4.676-10.316-10.316v-117.05c0-6.8768-1.375-11.691-3.989-13.616-2.613-2.0631-7.977-2.2011-14.442-0.413l-59.832 16.367c-3.989 1.101-10.729 4.402-10.729 14.168v120.63c0 5.501-4.676 10.04-10.316 10.04z" fill="#241f5c"/>
<path d="m255.44 262.77c-22.145 0-40.301-18.019-40.301-40.301 0-22.145 18.018-40.301 40.301-40.301 22.282 0 40.3 18.019 40.3 40.301s-18.018 40.301-40.3 40.301zm0-59.831c-10.866 0-19.669 8.801-19.669 19.668 0 10.866 8.803 19.669 19.669 19.669s19.669-8.803 19.669-19.669c0-10.867-8.803-19.668-19.669-19.668z" fill="#241f5c"/>
<path d="m175.66 167.17c-4.539 0-8.665-3.026-9.903-7.565-1.513-5.502 1.788-11.14 7.29-12.653l109.76-29.985c5.502-1.513 11.141 1.787 12.654 7.289 1.513 5.501-1.788 11.142-7.29 12.655l-109.76 29.985c-0.963 0.138-1.926 0.274-2.751 0.274z" fill="#241f5c"/>
</svg>
