<?xml version="1.0" encoding="UTF-8"?>
<svg fill="none" viewBox="0 0 232 232" xmlns="http://www.w3.org/2000/svg">
<g clip-path="url(#a)">
<path d="m116 38.667c8.265 0 16.743 0.2127 24.959 0.5607l9.706 0.464 9.289 0.551 8.7 0.5896 7.946 0.6187c8.623 0.66 16.738 4.3398 22.915 10.392 6.178 6.0523 10.024 14.089 10.861 22.697l0.386 4.1083 0.725 8.7967c0.677 9.1157 1.18 19.053 1.18 28.555s-0.503 19.44-1.18 28.555l-0.725 8.797c-0.125 1.411-0.251 2.774-0.386 4.108-0.838 8.61-4.685 16.648-10.864 22.7-6.18 6.053-14.296 9.732-22.921 10.389l-7.927 0.609-8.7 0.6-9.299 0.551-9.706 0.464c-8.315 0.361-16.636 0.548-24.959 0.56-8.323-0.012-16.644-0.199-24.959-0.56l-9.7054-0.464-9.2896-0.551-8.7-0.6-7.946-0.609c-8.6232-0.66-16.737-4.339-22.915-10.392-6.1778-6.052-10.023-14.089-10.86-22.697l-0.3866-4.108-0.725-8.797c-0.7392-9.501-1.1325-19.025-1.1794-28.555 0-9.502 0.5027-19.44 1.1794-28.555l0.725-8.7967c0.1256-1.4113 0.2513-2.7743 0.3866-4.1083 0.8366-8.6063 4.6808-16.642 10.857-22.694 6.1758-6.0521 14.288-9.7328 22.909-10.395l7.9363-0.6187 8.7-0.5896 9.2994-0.551 9.7053-0.464c8.3182-0.3613 16.643-0.5482 24.969-0.5607zm0 19.333c-7.975 0-16.182 0.2127-24.167 0.5414l-9.454 0.4543-9.077 0.5317-8.526 0.58-7.8106 0.609c-4.1052 0.2912-7.9746 2.0265-10.922 4.8983-2.9478 2.8718-4.7837 6.6945-5.1822 10.791-1.131 11.687-2.1943 26.236-2.1943 39.595s1.0633 27.908 2.1943 39.595c0.8217 8.429 7.511 14.983 16.105 15.689l7.8106 0.599 8.526 0.58 9.077 0.541 9.454 0.455c7.9847 0.328 16.192 0.541 24.167 0.541s16.182-0.213 24.167-0.541l9.454-0.455 9.077-0.531 8.526-0.58 7.81-0.609c4.105-0.292 7.975-2.027 10.923-4.899 2.948-2.871 4.784-6.694 5.182-10.79 1.131-11.687 2.194-26.236 2.194-39.595s-1.063-27.908-2.194-39.595c-0.398-4.0962-2.234-7.9189-5.182-10.791s-6.818-4.6071-10.923-4.8983l-7.81-0.5994-8.526-0.58-9.077-0.5413-9.454-0.4543c-8.051-0.3464-16.109-0.5269-24.167-0.5414zm-19.333 34.558c-7e-4 -0.9448 0.2295-1.8755 0.6705-2.711 0.441-0.8356 1.0794-1.5508 1.8598-2.0834 0.7803-0.5326 1.679-0.8665 2.618-0.9727s1.889 0.0185 2.769 0.3634l0.783 0.3867 40.6 23.432c0.808 0.467 1.492 1.122 1.993 1.909 0.502 0.787 0.806 1.684 0.886 2.614 0.081 0.93-0.064 1.865-0.422 2.727-0.359 0.862-0.92 1.625-1.636 2.224l-0.821 0.58-40.6 23.441c-0.818 0.474-1.74 0.741-2.685 0.777s-1.884-0.159-2.7358-0.569c-0.852-0.41-1.591-1.022-2.1524-1.782-0.5615-0.761-0.9285-1.647-1.0691-2.582l-0.058-0.87v-46.884z" fill="#000"/>
</g>
<defs>
<clipPath id="a">
<rect width="232" height="232" fill="#fff"/>
</clipPath>
</defs>
</svg>
