<?xml version="1.0" encoding="UTF-8"?>
<svg viewBox="0 0 296 297" xmlns="http://www.w3.org/2000/svg">
<path d="m216.71 296.56h-137.59c-50.22 0-79.114-28.894-79.114-79.114v-68.795c0-50.22 28.894-79.114 79.114-79.114h137.59c50.221 0 79.114 28.894 79.114 79.114v68.795c0 50.22-28.893 79.114-79.114 79.114zm-137.59-206.38c-39.351 0-58.476 19.125-58.476 58.475v68.795c0 39.351 19.125 58.476 58.476 58.476h137.59c39.351 0 58.476-19.125 58.476-58.476v-68.795c0-39.35-19.125-58.475-58.476-58.475h-137.59z" fill="#ffffff"/>
<path d="m230.47 55.779h-165.11c-5.6412 0-10.319-4.678-10.319-10.319s4.678-10.319 10.319-10.319h165.11c5.641 0 10.32 4.678 10.32 10.319s-4.679 10.319-10.32 10.319z" fill="#ffffff"/>
<path d="m189.2 21.382h-82.553c-5.642 0-10.32-4.678-10.32-10.319 0-5.6412 4.6776-10.319 10.32-10.319h82.553c5.642 0 10.32 4.678 10.32 10.319 0 5.6412-4.678 10.319-10.32 10.319z" fill="#ffffff"/>
<path d="m105.12 256.8c-16.098 0-29.169-13.071-29.169-29.169 0-16.097 13.071-29.169 29.169-29.169 16.097 0 29.168 13.072 29.168 29.169 0 16.098-13.071 29.169-29.168 29.169zm0-37.699c-4.678 0-8.5308 3.852-8.5308 8.53 0 4.679 3.8528 8.531 8.5308 8.531s8.53-3.852 8.53-8.531c0-4.678-3.852-8.53-8.53-8.53z" fill="#ffffff"/>
<path d="m123.98 237.95c-5.641 0-10.319-4.678-10.319-10.319v-75.812c0-12.108 7.567-21.876 19.125-25.041l37.699-10.319c11.971-3.302 19.537-0.137 23.665 3.165 4.127 3.164 9.082 9.631 9.082 21.876v73.611c0 5.641-4.678 10.319-10.319 10.319-5.642 0-10.32-4.678-10.32-10.319v-73.611c0-3.852-0.825-5.366-1.1-5.503-0.276-0.138-1.927-0.688-5.779 0.412l-37.563 10.319c-3.44 0.964-3.989 3.303-3.989 5.229v75.812c0.137 5.503-4.541 10.181-10.182 10.181z" fill="#ffffff"/>
<path d="m174.19 244.28c-16.098 0-29.169-13.072-29.169-29.169 0-16.098 13.071-29.169 29.169-29.169s29.169 13.071 29.169 29.169c0 16.097-13.071 29.169-29.169 29.169zm0-37.7c-4.678 0-8.531 3.852-8.531 8.531 0 4.678 3.853 8.53 8.531 8.53s8.53-3.852 8.53-8.53c0-4.679-3.852-8.531-8.53-8.531z" fill="#ffffff"/>
<path d="m123.98 184.15c-4.54 0-8.668-3.027-9.906-7.568-1.514-5.503 1.789-11.144 7.292-12.658l68.933-18.85c5.641-1.513 11.144 1.789 12.658 7.293 1.513 5.503-1.789 11.144-7.292 12.658l-68.933 18.85c-0.963 0.137-1.788 0.275-2.752 0.275z" fill="#ffffff"/>
</svg>
