<?xml version="1.0" encoding="UTF-8"?>
<svg fill="none" viewBox="0 0 317 277" xmlns="http://www.w3.org/2000/svg">
<path d="m11.01 266.22h295.82" stroke="#ffffff" stroke-linecap="round" stroke-linejoin="round" stroke-miterlimit="10" stroke-width="20.169"/>
<path d="m263.52 266.36v-59.972" stroke="#ffffff" stroke-linecap="round" stroke-linejoin="round" stroke-miterlimit="10" stroke-width="20.169"/>
<path d="m263.79 116.84c-16.404 0-29.582 13.177-29.582 29.581v30.523c0 16.405 13.178 29.582 29.582 29.582s29.582-13.177 29.582-29.582v-30.523c0-16.404-13.178-29.581-29.582-29.581z" stroke="#ffffff" stroke-linecap="round" stroke-linejoin="round" stroke-miterlimit="10" stroke-width="20.169"/>
<path d="m25.795 51.352c0-27.027 13.447-40.608 40.205-40.608h83.77c26.758 0 40.07 13.581 40.07 40.608v214.87" stroke="#ffffff" stroke-linecap="round" stroke-linejoin="round" stroke-miterlimit="10" stroke-width="20.169"/>
<path d="m25.795 266.22v-161.22" stroke="#ffffff" stroke-linecap="round" stroke-linejoin="round" stroke-miterlimit="10" stroke-width="20.169"/>
<path d="m75.562 81.336h66.559" stroke="#ffffff" stroke-linecap="round" stroke-linejoin="round" stroke-miterlimit="10" stroke-width="20.169"/>
<path d="m75.562 131.76h66.559" stroke="#ffffff" stroke-linecap="round" stroke-linejoin="round" stroke-miterlimit="10" stroke-width="20.169"/>
<path d="m108.5 266.22v-50.423" stroke="#ffffff" stroke-linecap="round" stroke-linejoin="round" stroke-miterlimit="10" stroke-width="20.169"/>
</svg>
