<?xml version="1.0" encoding="UTF-8"?>
<svg fill="none" viewBox="0 0 319 319" xmlns="http://www.w3.org/2000/svg">
<path d="m161.69 171.19c-1.035-0.148-2.366-0.148-3.549 0-26.032-0.887-46.74-22.186-46.74-48.366 0-26.772 21.595-48.514 48.515-48.514 26.771 0 48.514 21.743 48.514 48.514-0.148 26.18-20.708 47.479-46.74 48.366z" stroke="#ffffff" stroke-linecap="round" stroke-linejoin="round" stroke-width="22.186"/>
<path d="m259.61 268.81c-26.328 24.109-61.234 38.752-99.69 38.752-38.457 0-73.363-14.643-99.691-38.752 1.4791-13.904 10.354-27.511 26.18-38.161 40.527-26.919 106.79-26.919 147.02 0 15.826 10.65 24.701 24.257 26.18 38.161z" stroke="#ffffff" stroke-linecap="round" stroke-linejoin="round" stroke-width="22.186"/>
<path d="m159.92 307.56c81.687 0 147.91-66.221 147.91-147.91 0-81.687-66.221-147.91-147.91-147.91-81.688 0-147.91 66.221-147.91 147.91 0 81.688 66.221 147.91 147.91 147.91z" stroke="#ffffff" stroke-linecap="round" stroke-linejoin="round" stroke-width="22.186"/>
</svg>
