<?xml version="1.0" encoding="UTF-8"?>
<svg fill="none" viewBox="0 0 218 64" xmlns="http://www.w3.org/2000/svg">
<path d="m140.59 32.026c0 17.474-14.137 31.611-31.611 31.611-17.473 0-31.61-14.137-31.61-31.611 0-17.474 14.137-31.611 31.61-31.611 17.474 0 31.611 14.137 31.611 31.611zm45.66-31.611c-17.474 0-31.611 14.137-31.611 31.611 0 17.474 14.137 31.611 31.611 31.611 17.473 0 31.61-14.137 31.61-31.611 0-17.474-14.137-31.611-31.61-31.611zm-154.54 0c-17.474 0-31.611 14.137-31.611 31.611 0 17.474 14.137 31.611 31.611 31.611s31.611-14.137 31.611-31.611c0-17.474-14.137-31.611-31.611-31.611z" fill="#241F5C"/>
</svg>
