<svg width="150" height="150" viewBox="0 0 150 150" fill="none" xmlns="http://www.w3.org/2000/svg">
<path d="M68.75 87.5C75 87.5 81.5625 88.5 88.75 90.25C83.6875 95.6875 81.25 102.062 81.25 109.375C81.25 114.938 82.8125 120.188 86.125 125H18.75V112.5C18.75 105.062 24.4375 99.0625 35.875 94.5C47.3125 89.875 58.3125 87.5 68.75 87.5ZM68.75 75C62 75 56.25 72.5625 51.125 67.6875C46.125 62.8125 43.75 56.9375 43.75 50C43.75 43.25 46.125 37.5 51.125 32.375C56.25 27.375 62 25 68.75 25C75.6875 25 81.5625 27.375 86.4375 32.375C91.3125 37.5 93.75 43.25 93.75 50C93.75 56.9375 91.3125 62.8125 86.4375 67.6875C81.5625 72.5625 75.6875 75 68.75 75ZM115.625 62.5H137.5V75H125V109.375C125 113.519 123.354 117.493 120.424 120.424C117.493 123.354 113.519 125 109.375 125C105.231 125 101.257 123.354 98.3265 120.424C95.3962 117.493 93.75 113.519 93.75 109.375C93.75 105.231 95.3962 101.257 98.3265 98.3265C101.257 95.3962 105.231 93.75 109.375 93.75C111.625 93.75 113.688 94.1875 115.625 95.0625V62.5Z" fill="black"/>
</svg>
