<svg width="150" height="150" viewBox="0 0 150 150" fill="none" xmlns="http://www.w3.org/2000/svg">
<path d="M93.75 37.5H18.75V50H93.75V37.5ZM93.75 62.5H18.75V75H93.75V62.5ZM18.75 100H68.75V87.5H18.75V100ZM106.25 37.5V88.625C104.312 87.9375 102.187 87.5 100 87.5C95.0272 87.5 90.2581 89.4754 86.7417 92.9917C83.2254 96.5081 81.25 101.277 81.25 106.25C81.25 111.223 83.2254 115.992 86.7417 119.508C90.2581 123.025 95.0272 125 100 125C104.973 125 109.742 123.025 113.258 119.508C116.775 115.992 118.75 111.223 118.75 106.25V50H137.5V37.5H106.25Z" fill="black"/>
</svg>
