<svg width="53" height="53" viewBox="0 0 53 53" fill="none" xmlns="http://www.w3.org/2000/svg">
<path d="M52.1676 45.7936L41.9671 35.5931C41.5067 35.1327 40.8826 34.8769 40.2278 34.8769H38.5601C41.3839 31.2653 43.0619 26.7226 43.0619 21.7809C43.0619 10.0253 33.5366 0.5 21.7809 0.5C10.0253 0.5 0.5 10.0253 0.5 21.7809C0.5 33.5366 10.0253 43.0619 21.7809 43.0619C26.7226 43.0619 31.2653 41.3839 34.8769 38.5601V40.2278C34.8769 40.8826 35.1327 41.5067 35.5931 41.9671L45.7936 52.1676C46.7553 53.1294 48.3105 53.1294 49.262 52.1676L52.1574 49.2722C53.1191 48.3105 53.1191 46.7553 52.1676 45.7936ZM21.7809 34.8769C14.5475 34.8769 8.68497 29.0246 8.68497 21.7809C8.68497 14.5475 14.5372 8.68497 21.7809 8.68497C29.0144 8.68497 34.8769 14.5372 34.8769 21.7809C34.8769 29.0144 29.0246 34.8769 21.7809 34.8769Z" fill="#374151"/>
</svg>
