<?xml version="1.0" encoding="UTF-8"?>
<svg viewBox="0 0 296 297" xmlns="http://www.w3.org/2000/svg">
<path d="m141.05 282.83c-77.746 0-141.04-63.298-141.04-141.04 0-77.746 63.297-141.04 141.04-141.04 77.746 0 141.04 63.297 141.04 141.04 0 77.745-63.297 141.04-141.04 141.04zm0-261.45c-66.462 0-120.4 54.078-120.4 120.4 0 66.324 53.94 120.4 120.4 120.4 66.462 0 120.4-54.078 120.4-120.4 0-66.325-53.941-120.4-120.4-120.4z" fill="#241f5c"/>
<path d="m285.54 296.59c-2.615 0-5.229-0.964-7.293-3.028l-27.521-27.52c-3.99-3.991-3.99-10.596 0-14.586 3.99-3.991 10.595-3.991 14.586 0l27.521 27.52c3.99 3.991 3.99 10.596 0 14.586-2.065 2.064-4.679 3.028-7.293 3.028z" fill="#241f5c"/>
</svg>
