<svg width="15" height="15" viewBox="0 0 15 15" fill="none" xmlns="http://www.w3.org/2000/svg">
<g clip-path="url(#clip0_203_18)">
<path d="M12.8821 8.94348V11.8807C12.8813 12.6594 12.5715 13.406 12.0209 13.9567C11.4702 14.5072 10.7236 14.817 9.94491 14.8178H3.09165C2.31292 14.817 1.56634 14.5072 1.01562 13.9567C0.465065 13.406 0.155277 12.6594 0.15448 11.8807V5.02739C0.155298 4.24866 0.465078 3.50207 1.01562 2.95135C1.56634 2.4008 2.31292 2.09101 3.09165 2.09022H7.00783C7.2781 2.09022 7.49741 2.30936 7.49741 2.5798C7.49741 2.85008 7.2781 3.06922 7.00783 3.06922H3.09165C2.5724 3.06987 2.0748 3.27639 1.70766 3.64339C1.34051 4.01054 1.13415 4.50831 1.13348 5.02739V11.8807C1.13414 12.3999 1.34049 12.8975 1.70766 13.2646C2.07482 13.6318 2.5724 13.8382 3.09165 13.8388H9.94491C10.464 13.8382 10.9618 13.6318 11.3289 13.2646C11.6959 12.8975 11.9024 12.3999 11.9031 11.8807V8.94348C11.9031 8.6732 12.1222 8.45406 12.3925 8.45406C12.6629 8.45406 12.8821 8.67321 12.8821 8.94348ZM14.6968 3.21264L11.7597 0.275465C11.5676 0.0899235 11.2622 0.0927096 11.0734 0.281529C10.8846 0.470349 10.882 0.775687 11.0675 0.967653L13.1689 3.06924H11.9031C9.82644 3.0717 7.83562 3.89761 6.36737 5.36603C4.89912 6.83428 4.07302 8.82522 4.07075 10.9018C4.07075 11.172 4.2899 11.3913 4.56034 11.3913C4.83062 11.3913 5.04975 11.172 5.04975 10.9018C5.05189 9.0847 5.77469 7.34291 7.05941 6.05794C8.34426 4.7731 10.0863 4.05042 11.9032 4.04829H13.1692L11.0676 6.14987L11.0675 6.1497C10.9731 6.241 10.9193 6.36639 10.9182 6.49767C10.917 6.62896 10.9686 6.75517 11.0614 6.84794C11.1543 6.94087 11.2806 6.9925 11.4118 6.99136C11.5431 6.99021 11.6685 6.93645 11.7598 6.84188L14.697 3.90471C14.7888 3.81308 14.8404 3.68852 14.8404 3.5587C14.8404 3.42889 14.7888 3.30432 14.697 3.21254L14.6968 3.21264Z" fill="#553285" fill-opacity="0.3"/>
</g>
<defs>
<clipPath id="clip0_203_18">
<rect width="15" height="15" fill="white"/>
</clipPath>
</defs>
</svg>
